# xmcd CD database file
#
# Track frame offsets:
#	150
#	11914
#	45539
#	82825
#	124749
#	173399
#	204175
#	240900
#	275726
#
# Disc length: 4154 seconds
#
# Revision: 1
# Processed by: cddbd v1.4PL0 Copyright (c) Steve Scherf et al.
# Submitted via: CDex 1.50
#
DISCID=65103809
DTITLE=George Robert and Kenny Barron - PEACE
DYEAR=2002
DGENRE=Jazz
TTITLE0=Peace
TTITLE1=I Didn't Know What Time It Was
TTITLE2=Softly As In A Morning Sunrise
TTITLE3=Soul Eyes
TTITLE4=Tristeza
TTITLE5=Blue Monk
TTITLE6=Round Midnight
TTITLE7=A Day In Paris
TTITLE8=Song For Abdullah
EXTD=YEAR: 2002
EXTT0=
EXTT1=
EXTT2=
EXTT3=
EXTT4=
EXTT5=
EXTT6=
EXTT7=
EXTT8=
PLAYORDER=
